PathFileType	4	(X/Y/Z)	c:/Users/goper/Files/vsCode/490R/osim_files/C06/C06_SSWS_06.trc
DataRate	CameraRate	NumFrames	NumMarkers	Units                	OrigDataRate	OrigDataStartFrame	OrigNumFrames
250.00	250.00	5	36	mm	250.0	1557	3112
                Frame#	Time	LPSIS			LASIS			LTH1			LTH2			LTH3			LTH4			LLFE			LMFE			LSH1			LSH2			LSH3			LSH4			LLMAL			LMMAL			LCAL			LMTP5			LTOE			LMTP1			RPSIS			RASIS			RTH1			RTH2			RTH3			RTH4			RLFE			RMFE			RSH1			RSH2			RSH3			RSH4			RLMAL			RMMAL			RCAL			RMTP1			RTOE			RMTP5		
		X1	Y1	Z1	X2	Y2	Z2	X3	Y3	Z3	X4	Y4	Z4	X5	Y5	Z5	X6	Y6	Z6	X7	Y7	Z7	X8	Y8	Z8	X9	Y9	Z9	X10	Y10	Z10	X11	Y11	Z11	X12	Y12	Z12	X13	Y13	Z13	X14	Y14	Z14	X15	Y15	Z15	X16	Y16	Z16	X17	Y17	Z17	X18	Y18	Z18	X19	Y19	Z19	X20	Y20	Z20	X21	Y21	Z21	X22	Y22	Z22	X23	Y23	Z23	X24	Y24	Z24	X25	Y25	Z25	X26	Y26	Z26	X27	Y27	Z27	X28	Y28	Z28	X29	Y29	Z29	X30	Y30	Z30	X31	Y31	Z31	X32	Y32	Z32	X33	Y33	Z33	X34	Y34	Z34	X35	Y35	Z35	X36	Y36	Z36

1557	6.22400	-454.73370	978.41803	188.44481	-632.73981	946.97620	281.27756	-534.04089	746.47437	349.75784	-538.23407	683.81042	347.44092	-607.83118	745.93402	332.64371	-602.14423	684.46924	332.35828	-510.76190	438.83792	316.72928	-516.44489	410.96841	204.73982	-384.14035	416.00919	328.70319	-354.98004	383.11774	326.05997	-427.42380	368.58902	336.34442	-391.35358	342.87808	332.21863	-181.65205	223.19704	286.68350	-210.33759	222.25662	211.63876	-162.34219	283.96106	238.52602	-127.96828	104.47524	295.05420	-166.73091	58.97062	231.24828	-154.29291	87.60443	185.15370	-448.11047	980.40070	116.68041	-631.81519	966.94928	44.02554	-592.89990	762.40814	-41.11454	-618.71570	705.77405	-33.50497	-662.77618	789.23346	-25.04582	-679.44305	727.87317	-20.97118	-721.15454	455.80579	26.08136	-732.15186	477.11026	132.44337	-670.33923	378.97614	8.30907	-671.56396	331.06241	10.77987	-729.52252	371.58420	22.01918	-723.27570	325.96320	22.66147	-671.58197	87.84274	67.40475	-687.58118	113.19453	142.54607	-605.42456	66.46732	118.38405	-812.43634	36.02002	151.05933	-830.98462	55.50475	104.31190	-782.56213	33.03352	38.26786
1558	6.22800	-459.68280	979.41516	187.84520	-637.66901	948.42126	281.08112	-540.53345	747.06000	349.22678	-545.37640	684.46448	347.09607	-614.35907	747.27490	332.26917	-609.36316	685.76331	332.09274	-521.44653	439.10205	316.70224	-526.52704	411.73053	204.36835	-395.07184	416.09903	328.80539	-365.93512	383.21756	326.21390	-438.23654	368.54150	336.34610	-402.19199	342.92426	332.27621	-191.39354	225.51497	286.07217	-220.42351	224.26373	211.23082	-172.02069	285.70270	237.50267	-138.17839	106.62028	295.21359	-177.47318	60.68160	232.09766	-165.31509	89.07864	185.55142	-453.13705	981.54382	116.24266	-636.89862	967.90454	43.63343	-596.24030	763.13391	-41.36797	-621.82831	706.35876	-33.87088	-666.13440	789.60474	-25.71440	-682.13824	728.27246	-22.17809	-722.17712	455.61600	25.66960	-733.96088	476.95636	131.73654	-670.56238	379.02576	8.38739	-671.63031	331.06049	10.89399	-729.92950	371.56070	20.82575	-723.39166	325.71860	22.21527	-671.60962	87.87946	67.38702	-687.69690	113.19184	142.57658	-605.45093	66.45455	118.46653	-812.41290	36.02285	151.06108	-830.97516	55.44546	104.28709	-782.55182	32.99402	38.24359
1559	6.23200	-464.68509	980.46423	187.17979	-642.59753	949.81586	280.82230	-547.13672	747.75250	348.62717	-552.62738	685.15076	346.68372	-620.94910	748.62219	331.83032	-616.52277	687.05682	331.83054	-532.03558	439.37982	316.64984	-536.78644	412.71082	203.97737	-405.95688	416.24213	328.86728	-376.82053	383.30832	326.34055	-449.18042	368.68484	336.27087	-413.10010	343.08667	332.35736	-201.48112	227.58318	285.44324	-230.55768	226.12677	210.79666	-181.66599	287.21594	236.41573	-149.17078	108.26870	295.34479	-189.00429	62.21236	232.73970	-176.84938	90.17116	185.86215	-457.98523	982.78619	115.77445	-641.92822	968.78534	43.16526	-599.59326	763.88531	-41.66673	-624.89398	706.92786	-34.14268	-669.66003	789.97632	-26.29304	-685.36914	728.58997	-22.88663	-722.98730	455.38562	25.23392	-735.15491	476.61411	130.92961	-670.68903	379.03110	8.58596	-671.63306	331.09125	11.00141	-730.21924	371.31790	20.23374	-723.45459	325.55179	21.78806	-671.65771	87.92972	67.37752	-687.86462	113.23181	142.62450	-605.48651	66.38476	118.51965	-812.40729	36.02247	151.05861	-830.97418	55.42240	104.25381	-782.57324	32.97253	38.22367
1560	6.23600	-469.59070	981.59949	186.58141	-647.24030	951.15491	280.63431	-554.09387	748.35596	347.65460	-559.83539	685.93109	346.33896	-628.09583	750.09052	331.55429	-623.82019	688.41431	331.54456	-542.79883	439.80551	316.52502	-547.00537	413.69809	203.62325	-416.84094	416.51819	328.93716	-388.02020	383.28659	326.31421	-460.05344	369.00937	336.10873	-423.92575	343.43896	332.29700	-211.54121	229.33876	284.76999	-240.87955	227.84241	210.36511	-191.05746	288.51086	235.33630	-160.62746	109.62968	295.43674	-201.41975	63.60248	233.50395	-189.39244	91.52416	185.98865	-462.61850	984.09955	115.42839	-646.96515	969.66040	42.70002	-602.90546	764.66071	-41.99593	-627.89166	707.56409	-34.43406	-673.20532	790.42792	-26.94020	-689.07526	728.76587	-23.49399	-723.74695	455.24347	24.72878	-737.01691	476.52673	130.21693	-670.79327	379.10950	8.67767	-671.59241	331.12839	11.07511	-730.28119	370.87967	20.27368	-723.49377	325.39627	21.28676	-671.71429	87.97032	67.35796	-688.01489	113.28405	142.63562	-605.48767	66.42190	118.55117	-812.42279	36.02696	151.05208	-830.98883	55.38965	104.20701	-782.55219	32.93763	38.19645
1561	6.24000	-474.52563	982.74316	185.92285	-652.08594	952.65637	280.52310	-560.70618	749.02899	347.13644	-567.18182	686.71667	345.93619	-634.74957	751.46484	331.10925	-631.12146	689.84900	331.24350	-553.49390	440.36484	316.42401	-557.23303	414.63135	203.17995	-427.75229	416.89798	328.98727	-398.88553	383.64630	326.38113	-470.89328	369.37503	335.87158	-434.84680	343.77197	332.04184	-221.67934	230.92194	284.10400	-251.25003	229.43053	209.76060	-200.28836	289.51434	234.29944	-172.52403	110.57376	295.63562	-214.03822	64.77898	234.10686	-201.71901	92.17223	186.36282	-467.17963	985.42285	115.30929	-651.80640	970.55597	42.35758	-606.25043	765.43414	-42.25964	-630.96228	708.18433	-34.72192	-676.83368	790.89404	-27.61328	-691.80493	728.51855	-22.70638	-724.36005	455.12677	24.36503	-738.89581	476.34622	129.54741	-670.80731	379.18845	8.77375	-671.51868	331.19989	11.16210	-730.97943	370.98343	19.43499	-723.51398	325.26874	20.81401	-671.76086	88.04073	67.35428	-688.18927	113.35208	142.65207	-605.54504	66.47215	118.58591	-812.56610	35.94097	150.95633	-831.01550	55.35613	104.15849	-782.55353	32.87239	38.16247
